<svg width="16" height="16" viewBox="0 0 16 16" fill="none" xmlns="http://www.w3.org/2000/svg">
<g clip-path="url(#clip0_2003_217)">
<path d="M8.13659 4.18647C8.12639 4.18656 8.11638 4.18831 8.10719 4.19162C8.09801 4.19492 8.08999 4.1997 8.08354 4.2056C8.07708 4.21149 8.07243 4.21838 8.06992 4.22576C8.06741 4.23314 8.06694 4.24082 8.06884 4.2483L11.1507 15.8001C12.6418 15.1579 13.9023 14.0773 14.7646 12.7018L8.19752 4.21209C8.19128 4.2042 8.18241 4.19769 8.17171 4.19319C8.16102 4.18869 8.14887 4.18636 8.13659 4.18647Z" fill="url(#paint0_linear_2003_217)"/>
<path d="M7.98626 0.452515C3.56783 0.452515 -0.0138702 4.03423 -0.0138702 8.45252C-0.0138702 9.95545 0.409405 11.428 1.20777 12.7015L7.87788 4.07842C7.92574 4.01613 8.04644 4.01613 8.0943 4.07842L14.7644 12.7019C15.5628 11.4283 15.9864 9.95559 15.9864 8.45252C15.9864 4.03423 12.4047 0.452515 7.98626 0.452515Z" fill="black"/>
</g>
<defs>
<linearGradient id="paint0_linear_2003_217" x1="8.13662" y1="4.18647" x2="13.2799" y2="14.4508" gradientUnits="userSpaceOnUse">
<stop stop-opacity="0"/>
<stop offset="0.495173" stop-opacity="0.3"/>
<stop offset="1" stop-opacity="0.3"/>
</linearGradient>
<clipPath id="clip0_2003_217">
<rect width="16" height="16" fill="white"/>
</clipPath>
</defs>
</svg>
