<svg width="16" height="16" viewBox="0 0 16 16" fill="none" xmlns="http://www.w3.org/2000/svg">
<g clip-path="url(#clip0_2003_87)">
<path d="M14.5139 0H1.48548C1.1734 0 0.939266 0.264084 0.9668 0.57613L2.15679 13.9114C2.18436 14.2232 2.45405 14.5495 2.75655 14.6338L7.44765 15.9369C7.74973 16.0206 8.2435 16.0211 8.54603 15.938L13.2429 14.6367C13.5455 14.5527 13.8152 14.2293 13.8427 13.9169L15.0332 0.57613C15.0608 0.264084 14.8276 0 14.5139 0ZM12.2545 4.81364C12.2543 4.81568 12.2527 4.81728 12.2506 4.81762C12.2486 4.81796 12.2466 4.8169 12.2458 4.815L8.5704 6.32115C8.51805 6.3426 8.48821 6.39811 8.49909 6.45362C8.51003 6.50913 8.55871 6.54917 8.61531 6.54917H11.4741C11.6262 6.54917 11.7711 6.61376 11.8728 6.72685C11.9745 6.83994 12.0233 6.9909 12.0072 7.14209L11.5605 11.3324C11.5386 11.538 11.4004 11.7126 11.2054 11.7813L8.17096 12.8489C8.05668 12.8892 7.9321 12.8895 7.81755 12.8498L4.79729 11.8036C4.60105 11.7356 4.46176 11.5604 4.43969 11.3539L4.2372 9.45623C4.22656 9.3566 4.25876 9.25714 4.32572 9.18267C4.39272 9.10816 4.48817 9.0656 4.58838 9.0656H5.42883C5.60943 9.0656 5.7609 9.2018 5.78 9.38135L5.90424 10.5478L7.99546 11.2747L10.0963 10.5412L10.3532 8.12198H4.41335C4.2333 8.12198 4.08206 7.98652 4.06232 7.80755L3.94922 6.78222C3.93196 6.62582 4.0202 6.4769 4.16562 6.41698L7.96718 4.84964C8.01032 4.83186 8.03482 4.78614 8.02578 4.74039C8.01671 4.69467 7.97663 4.66173 7.93003 4.66173H3.9275C3.807 4.66173 3.70594 4.57073 3.69337 4.45095L3.57759 3.34889C3.57062 3.28257 3.59214 3.21639 3.63677 3.1668C3.6814 3.11724 3.745 3.08892 3.81169 3.08892H12.1866C12.2537 3.08892 12.3175 3.11754 12.3622 3.16754C12.4069 3.21758 12.4281 3.28427 12.4205 3.3509L12.2545 4.81364Z" fill="black"/>
</g>
<defs>
<clipPath id="clip0_2003_87">
<rect width="16" height="16" fill="white"/>
</clipPath>
</defs>
</svg>
