<svg width="215" height="83" viewBox="0 0 215 83" fill="none" xmlns="http://www.w3.org/2000/svg">
<rect x="0.5" y="0.5" width="214" height="82" rx="15.5" fill="#99C1F1" fill-opacity="0.3" stroke="#99C1F1"/>
<path d="M108.007 54.7493C115.319 54.7493 121.246 49.1688 121.246 42.2849C121.246 35.401 115.319 29.8205 108.007 29.8205C100.696 29.8205 94.7685 35.401 94.7685 42.2849C94.7685 49.1688 100.696 54.7493 108.007 54.7493Z" stroke="#3584E4" stroke-opacity="0.7" stroke-width="8"/>
<path d="M93.0081 15.8604H86.9969C86.6095 15.8604 86.2956 16.3141 86.2956 16.8736V17.8386C86.2956 18.3982 86.6095 18.8519 86.9969 18.8519H93.0081C93.3954 18.8519 93.7094 18.3982 93.7094 17.8386V16.8736C93.7094 16.3141 93.3954 15.8604 93.0081 15.8604Z" stroke="#3584E4" stroke-width="1.1"/>
<path d="M130.756 18.8518H85.2588C82.9067 18.8518 81 20.6469 81 22.8612V62.7057C81 64.92 82.9067 66.7151 85.2588 66.7151H130.756C133.108 66.7151 135.015 64.92 135.015 62.7057V22.8612C135.015 20.6469 133.108 18.8518 130.756 18.8518Z" stroke="#3584E4" stroke-width="2"/>
</svg>
