<svg width="16" height="16" viewBox="0 0 16 16" fill="none" xmlns="http://www.w3.org/2000/svg">
<path d="M8.06346 0C3.10561 2.82143 0.0282204 8.10778 0 13.8494C5.18733 16.6998 11.2779 16.6022 15.9983 13.8791C15.9989 13.8653 15.9996 13.8521 16 13.8384C15.9935 8.12759 12.9685 2.85249 8.06346 0ZM10.7336 6.11324C11.4687 6.6167 11.3597 7.82869 11.2413 8.65866C11.0906 9.57291 10.2213 11.0762 9.09135 12.0571C9.2375 12.2683 9.32198 12.5284 9.3208 12.8059C8.6206 13.1626 7.92628 12.7603 7.08599 12.035C6.2457 11.3098 5.33937 9.8565 5.03861 8.36304C4.77185 8.39151 4.49883 8.33156 4.26454 8.18261C4.32573 7.34517 5.2076 6.84734 5.98918 6.55371C6.77076 6.26009 8.78446 6.16112 10.2041 6.66976C10.3148 6.43553 10.498 6.23801 10.7336 6.11324Z" fill="black"/>
</svg>
