<svg width="16" height="16" viewBox="0 0 16 16" fill="none" xmlns="http://www.w3.org/2000/svg">
<g clip-path="url(#clip0_2003_28)">
<path d="M12 2C12 0.895431 10.2091 0 8 0C5.79086 0 4 0.895431 4 2V14C4 15.1046 5.79086 16 8 16C10.2091 16 12 15.1046 12 14V2Z" fill="black"/>
<path d="M14 4H2C0.895431 4 0 5.79086 0 8C0 10.2091 0.895431 12 2 12H14C15.1046 12 16 10.2091 16 8C16 5.79086 15.1046 4 14 4Z" fill="black"/>
<path d="M5.8 2.74001C6.20869 2.74001 6.54 2.4087 6.54 2.00001C6.54 1.59132 6.20869 1.26001 5.8 1.26001C5.39131 1.26001 5.06 1.59132 5.06 2.00001C5.06 2.4087 5.39131 2.74001 5.8 2.74001Z" fill="#EEEEEE"/>
<path d="M10.2 14.74C10.6087 14.74 10.94 14.4087 10.94 14C10.94 13.5913 10.6087 13.26 10.2 13.26C9.7913 13.26 9.45999 13.5913 9.45999 14C9.45999 14.4087 9.7913 14.74 10.2 14.74Z" fill="#EEEEEE"/>
<path d="M4 3.79999H8" stroke="#EEEEEE"/>
<path d="M8 12.2H12" stroke="#EEEEEE"/>
<path d="M3.79999 12C3.79999 8 4.79999 8 7.79999 8C11.2 8 12.2 8 12.2 4" stroke="#EEEEEE"/>
</g>
<defs>
<clipPath id="clip0_2003_28">
<rect width="16" height="16" fill="white"/>
</clipPath>
</defs>
</svg>
